<svg width="159" height="110" viewBox="0 0 159 110" fill="none" xmlns="http://www.w3.org/2000/svg">
<g clip-path="url(#clip0_677_15)">
<path d="M90.3366 26.1899C93.1004 23.4127 94.8081 19.5836 94.8081 15.3493C94.8081 6.87418 87.9575 0 79.5033 0C74.1583 0 69.4586 2.75098 66.7209 6.91339C65.9909 7.64524 5.03862 82.9476 4.47153 83.8167C1.70779 86.5873 0 90.423 0 94.6507C0 103.126 6.85721 110 15.3114 110C20.6564 110 25.356 107.249 28.0937 103.087C28.8238 102.355 89.7695 27.0524 90.3366 26.1899Z" fill="white"/>
<path d="M125.607 61.92C128.377 59.1428 130.091 55.3072 130.091 51.0663C130.091 42.5912 123.234 35.717 114.78 35.717C109.435 35.717 104.729 38.468 101.991 42.637C101.255 43.3754 69.2435 82.928 68.6699 83.8037C65.8996 86.5808 64.1853 90.4165 64.1853 94.6573C64.1853 103.132 71.0425 110.007 79.4967 110.007C84.8417 110.007 89.5479 107.256 92.2855 103.087C93.0221 102.348 125.033 62.789 125.607 61.92Z" fill="#4155E5"/>
<path d="M159 15.3493C159 23.8244 152.143 30.6986 143.689 30.6986C135.234 30.6986 128.377 23.8244 128.377 15.3493C128.377 6.87418 135.234 0 143.689 0C152.143 0 159 6.87418 159 15.3493Z" fill="white"/>
<path d="M30.6228 15.3493C30.6228 23.8244 23.7656 30.6986 15.3114 30.6986C6.85721 30.6986 0 23.8244 0 15.3493C0 6.87418 6.85721 0 15.3114 0C23.7656 0 30.6228 6.87418 30.6228 15.3493Z" fill="#4155E5"/>
</g>
<defs>
<clipPath id="clip0_677_15">
<rect width="159" height="110" fill="white"/>
</clipPath>
</defs>
</svg>
